<svg id="Layer_1" enable-background="new 0 0 512 512" height="512" viewBox="0 0 512 512" width="512" xmlns="http://www.w3.org/2000/svg"><path d="m496 248v-88c0-88.225-71.775-160-160-160h-160c-88.225 0-160 71.775-160 160v88c-8.837 0-16 7.163-16 16v64c0 8.837 7.163 16 16 16h2.124l16.15 113.052c4.507 31.55 31.545 54.948 63.356 54.948h316.74c31.871 0 58.857-23.456 63.356-54.949l16.15-113.051h2.124c8.837 0 16-7.163 16-16v-64c0-8.837-7.163-16-16-16zm-464 32h448v32h-448zm226.742-184h13.258c20.86 0 38.654 13.375 45.258 32h-13.258c-20.86 0-38.654-13.375-45.258-32zm61.258 64c1.285 0 .456-.66.025 7.105-.514 9.176 6.787 16.882 15.988 16.882 8.406-.001 15.456-6.569 15.96-15.067.026-.445.058-.898.093-1.358 29.391 14.686 45.593 47.601 38.14 80.438h-140.413c-10.279-45.291 24.328-88 70.207-88zm-102.753 88h-93.135c13.981-39.43 57.775-58.069 95.334-42.578-3.631 13.732-4.435 28.113-2.199 42.578zm-169.247-88c0-70.579 57.421-128 128-128h160c70.579 0 128 57.421 128 128v88h-41.247c7.503-48.526-19.628-94.109-63.039-112.113 2.145-4.641 4.655-8.183 7.441-9.577 11.566-5.783 17.449-6.324 17.507-6.329-.956.081-.662 3.478-.662-31.981-9.568 0-31.727 7.343-41.878 17.537-13.622-24.735-39.944-41.537-70.122-41.537h-32c-8.837 0-16 7.163-16 16 0 27.972 14.441 52.622 36.249 66.926-11.098 7.818-20.606 17.747-27.931 29.201-59.198-24.914-126.747 9.329-141.526 71.873h-42.792zm410.123 208h-10.123c-8.837 0-16 7.163-16 16s7.163 16 16 16h5.552l-7.503 52.524c-2.238 15.664-15.858 27.476-31.679 27.476h-316.74c-15.821 0-29.44-11.812-31.679-27.475l-7.503-52.525h5.552c8.837 0 16-7.163 16-16s-7.163-16-16-16h-10.123l-3.428-24h411.104z"/><path d="m216 440c0 8.837 7.163 16 16 16h48c8.837 0 16-7.163 16-16s-7.163-16-16-16h-48c-8.837 0-16 7.163-16 16z"/><path d="m160 400h48c8.837 0 16-7.163 16-16s-7.163-16-16-16h-48c-8.837 0-16 7.163-16 16s7.163 16 16 16z"/><path d="m304 400h48c8.837 0 16-7.163 16-16s-7.163-16-16-16h-48c-8.837 0-16 7.163-16 16s7.163 16 16 16z"/><path d="m72 440c0 8.837 7.163 16 16 16h48c8.837 0 16-7.163 16-16s-7.163-16-16-16h-48c-8.837 0-16 7.163-16 16z"/><path d="m360 440c0 8.837 7.163 16 16 16h48c8.837 0 16-7.163 16-16s-7.163-16-16-16h-48c-8.837 0-16 7.163-16 16z"/><path d="m184 416c-8.837 0-16 7.163-16 16v16c0 8.837 7.163 16 16 16s16-7.163 16-16v-16c0-8.837-7.163-16-16-16z"/><path d="m328 416c-8.837 0-16 7.163-16 16v16c0 8.837 7.163 16 16 16s16-7.163 16-16v-16c0-8.837-7.163-16-16-16z"/><path d="m256 408c8.837 0 16-7.163 16-16v-16c0-8.837-7.163-16-16-16s-16 7.163-16 16v16c0 8.837 7.163 16 16 16z"/><path d="m112 408c8.837 0 16-7.163 16-16v-16c0-8.837-7.163-16-16-16s-16 7.163-16 16v16c0 8.837 7.163 16 16 16z"/><path d="m400 408c8.837 0 16-7.163 16-16v-16c0-8.837-7.163-16-16-16s-16 7.163-16 16v16c0 8.837 7.163 16 16 16z"/></svg>