<svg id="Layer_1" enable-background="new 0 0 512 512" height="512" viewBox="0 0 512 512" width="512" xmlns="http://www.w3.org/2000/svg"><g><g><path d="m448 264h-32v-48c0-88.224-71.775-160-160-160s-160 71.776-160 160v48h-32v-48c0-105.869 86.131-192 192-192s192 86.131 192 192z" fill="#f5871e"/></g><g><g><g><path d="m224 264c0-6.608-1.336-12.903-3.751-18.632 17.606 1.028 35.555-5.172 49.006-18.623l10.745-10.745-10.745-10.745c-13.452-13.451-31.4-19.651-49.006-18.623 2.415-5.729 3.751-12.024 3.751-18.632 0-4.418-3.582-8-8-8-26.51 0-48 21.49-48 48v8 8c0 26.51 21.49 48 48 48 4.418 0 8-3.582 8-8z" fill="#91b945"/></g><g><path d="m224 264c0-6.608-1.336-12.903-3.752-18.632 17.606 1.028 35.555-5.172 49.006-18.623l10.746-10.745h-104-8v8c0 26.51 21.49 48 48 48 4.418 0 8-3.582 8-8z" fill="#69a041"/></g></g><g><g><circle cx="168" cy="328" fill="#d7322d" r="24"/></g><g><circle cx="152" cy="232" fill="#784687" r="24"/></g><g><circle cx="144" cy="224" fill="#9b5faa" r="8"/></g><g><circle cx="184" cy="232" fill="#784687" r="24"/></g><g><circle cx="176" cy="224" fill="#9b5faa" r="8"/></g><g><circle cx="152" cy="296" fill="#d7322d" r="24"/></g><g><circle cx="184" cy="296" fill="#d7322d" r="24"/></g><g><circle cx="136" cy="264" fill="#784687" r="24"/></g><g><circle cx="128" cy="256" fill="#9b5faa" r="8"/></g><g><circle cx="200" cy="264" fill="#784687" r="24"/></g><g><circle cx="168" cy="264" fill="#784687" r="24"/></g><g><circle cx="160" cy="256" fill="#9b5faa" r="8"/></g><g><circle cx="192" cy="256" fill="#9b5faa" r="8"/></g><g><circle cx="144" cy="288" fill="#f04b37" r="8"/></g><g><circle cx="176" cy="288" fill="#f04b37" r="8"/></g><g><circle cx="160" cy="320" fill="#f04b37" r="8"/></g></g></g><g><g><path d="m336 205.333c-4.418 0-8-3.582-8-8v-5.333c0-13.234-10.767-24-24-24-4.418 0-8-3.582-8-8s3.582-8 8-8c22.056 0 40 17.944 40 40v5.333c0 4.418-3.582 8-8 8z" fill="#353744"/></g><g><path d="m368 184c-12.296 0-23.507 4.629-32 12.232-8.493-7.603-19.704-12.232-32-12.232-26.51 0-48 21.49-48 48 0 45.333 32 80 56 80s24 0 24 0 0 0 24 0 56-34.667 56-80c0-26.51-21.49-48-48-48z" fill="#d7322d"/></g><g><circle cx="296" cy="216" fill="#f04b37" r="16"/></g><g><path d="m376 120c-22.091 0-40 17.909-40 40v8h8c22.091 0 40-17.909 40-40 0-4.418-3.582-8-8-8z" fill="#69a041"/></g></g><g><path d="m448 328h-384c-8.837 0-16-7.163-16-16v-32c0-8.837 7.163-16 16-16h384c8.837 0 16 7.163 16 16v32c0 8.837-7.163 16-16 16z" fill="#fabe19"/></g><g><path d="m448 264h-192v64h192c8.836 0 16-7.163 16-16v-32c0-8.837-7.164-16-16-16z" fill="#f5871e"/></g><g><path d="m373.766 488h-235.532c-15.254 0-28.387-10.767-31.379-25.724l-26.855-134.276h352l-26.855 134.276c-2.992 14.957-16.125 25.724-31.379 25.724z" fill="#f5871e"/></g><g><path d="m138.234 488h85.766c17.673 0 32-14.327 32-32v-112h-172.8l23.655 118.276c2.992 14.957 16.125 25.724 31.379 25.724z" fill="#fabe19"/></g><g><path d="m120 296h-32c-4.418 0-8-3.582-8-8 0-4.418 3.582-8 8-8h32c4.418 0 8 3.582 8 8 0 4.418-3.582 8-8 8z" fill="#f5871e"/></g><g><path d="m152 392h-32c-4.418 0-8-3.582-8-8 0-4.418 3.582-8 8-8h32c4.418 0 8 3.582 8 8 0 4.418-3.582 8-8 8z" fill="#f5871e"/></g><g><path d="m328 408h-32c-4.418 0-8-3.582-8-8 0-4.418 3.582-8 8-8h32c4.418 0 8 3.582 8 8 0 4.418-3.582 8-8 8z" fill="#fabe19"/></g><g><path d="m200 440h-32c-4.418 0-8-3.582-8-8 0-4.418 3.582-8 8-8h32c4.418 0 8 3.582 8 8 0 4.418-3.582 8-8 8z" fill="#f5871e"/></g><g><path d="m232 376h-32c-4.418 0-8-3.582-8-8 0-4.418 3.582-8 8-8h32c4.418 0 8 3.582 8 8 0 4.418-3.582 8-8 8z" fill="#f5871e"/></g></g></svg>